<?xml version="1.0" standalone="no"?><!DOCTYPE svg PUBLIC "-//W3C//DTD SVG 1.1//EN" "http://www.w3.org/Graphics/SVG/1.1/DTD/svg11.dtd"><svg class="icon" height="512" viewBox="0 0 1025 1024" version="1.1" xmlns="http://www.w3.org/2000/svg"><path d="M381.44 411.648V721.92H278.016V411.648h103.424z m6.144-96.256c0 15.36-5.12 28.16-15.872 38.4s-25.088 15.36-42.496 15.36h-0.512c-16.896 0-30.72-5.12-41.472-15.36-10.24-10.24-15.872-23.04-15.872-38.4s5.632-28.16 16.384-38.4 24.576-15.36 41.984-15.36c17.408 0 31.232 5.12 41.472 15.36 11.264 10.24 16.384 23.04 16.384 38.4z m365.568 228.352V721.92H650.24v-165.888c0-22.016-4.096-38.912-12.8-51.712-8.704-12.288-21.504-18.432-39.424-18.432-13.312 0-24.064 3.584-33.28 10.752-8.704 7.168-15.36 16.384-19.968 26.624-2.048 6.144-3.584 14.848-3.584 25.6V721.92H438.272c0.512-83.456 0.512-151.04 0.512-202.752s0-82.944-0.512-92.672l-0.512-14.848h102.912v45.056h-0.512c4.096-6.656 8.704-12.288 12.8-17.408 4.608-5.12 10.24-10.24 17.92-16.384 7.168-5.632 16.384-10.24 27.136-13.824 10.752-3.072 22.528-5.12 35.84-4.608 35.84 0 64.512 11.776 86.016 35.328 22.528 23.552 33.28 58.368 33.28 103.936zM1024.512 512c0-282.624-229.376-512-512-512S0.512 229.376 0.512 512s229.376 512 512 512 512-229.376 512-512z m-971.776 0c0-253.952 205.824-459.776 459.776-459.776s459.776 205.824 459.776 459.776-205.824 459.776-459.776 459.776-459.776-205.824-459.776-459.776z" /></svg>