<?xml version="1.0" standalone="no"?><!DOCTYPE svg PUBLIC "-//W3C//DTD SVG 1.1//EN" "http://www.w3.org/Graphics/SVG/1.1/DTD/svg11.dtd"><svg class="icon" height="512" viewBox="0 0 1024 1024" version="1.1" xmlns="http://www.w3.org/2000/svg"><path d="M795.306667 277.455238a243.809524 243.809524 0 0 1-78.019048 29.744762 123.12381 123.12381 0 0 0-212.845714 82.895238 141.653333 141.653333 0 0 0 2.925714 28.281905 349.622857 349.622857 0 0 1-253.805714-128.731429 123.12381 123.12381 0 0 0 39.009524 165.546667A124.586667 124.586667 0 0 1 236.251429 438.857143v1.462857a121.904762 121.904762 0 0 0 97.523809 121.904762 131.169524 131.169524 0 0 1-32.426667 4.144762 152.868571 152.868571 0 0 1-24.380952-1.950476 123.367619 123.367619 0 0 0 115.078095 85.333333 246.491429 246.491429 0 0 1-152.868571 52.662857 257.950476 257.950476 0 0 1-29.744762-1.462857A350.354286 350.354286 0 0 0 750.933333 405.699048v-16.091429a265.99619 265.99619 0 0 0 61.68381-63.634286 245.76 245.76 0 0 1-70.948572 19.017143 121.904762 121.904762 0 0 0 53.638096-67.535238zM512 0a512 512 0 1 0 512 512A512 512 0 0 0 512 0z m0 975.238095a463.238095 463.238095 0 1 1 463.238095-463.238095 463.238095 463.238095 0 0 1-463.238095 463.238095z" /></svg>